<svg xmlns="http://www.w3.org/2000/svg" viewBox="0 0 1200 700" role="img" aria-label="Equity valuation model selection map">
<rect width="100%" height="100%" rx="28" fill="#fffaf3"/>
<style>
 text{font-family:Pretendard, 'Noto Sans KR', Arial, sans-serif;fill:#28231f}.muted{fill:#756b62}.small{font-size:22px}.tiny{font-size:18px}.label{font-size:24px;font-weight:700}.title{font-size:34px;font-weight:800}.mono{font-family:Consolas,'SFMono-Regular',monospace}
</style>
<text x="60" y="60" class="title" text-anchor="start">Equity Valuation: 모델 선택 지도</text><rect x="425" y="110" width="350" height="100" rx="20" fill="#f6dfca" stroke="#8a4f2d" stroke-width="2"/><text x="600.0" y="160.0" class="label" text-anchor="middle">What are you valuing?</text><rect x="70" y="330" width="220" height="130" rx="20" fill="#fff" stroke="#2f7d73" stroke-width="2"/><text x="180.0" y="379.0" class="label" text-anchor="middle">Dividend-paying</text><text x="180.0" y="411.0" class="label" text-anchor="middle">stable company</text><text x="180.0" y="440" class="tiny" text-anchor="middle">DDM</text><line x1="600" y1="210" x2="180" y2="330" stroke="#2f7d73" stroke-width="3"/><polygon points="180,330 191.1254976168858,318.50116080742634 195.52103566324385,333.8855439696795" fill="#2f7d73"/><rect x="360" y="330" width="220" height="130" rx="20" fill="#fff" stroke="#4d74a8" stroke-width="2"/><text x="470.0" y="379.0" class="label" text-anchor="middle">Cash flow</text><text x="470.0" y="411.0" class="label" text-anchor="middle">forecastable</text><text x="470.0" y="440" class="tiny" text-anchor="middle">FCFF / FCFE</text><line x1="600" y1="210" x2="470" y2="330" stroke="#4d74a8" stroke-width="3"/><polygon points="470,330 474.75549437550694,314.72304764540644 485.607976019236,326.47990275944625" fill="#4d74a8"/><rect x="650" y="330" width="220" height="130" rx="20" fill="#fff" stroke="#4d8b64" stroke-width="2"/><text x="760.0" y="379.0" class="label" text-anchor="middle">Accounting book value</text><text x="760.0" y="411.0" class="label" text-anchor="middle">meaningful</text><text x="760.0" y="440" class="tiny" text-anchor="middle">Residual Income</text><line x1="600" y1="210" x2="760" y2="330" stroke="#4d8b64" stroke-width="3"/><polygon points="760,330 744.1148748315592,328.0861561236694 753.7148748315592,315.2861561236694" fill="#4d8b64"/><rect x="940" y="330" width="220" height="130" rx="20" fill="#fff" stroke="#d68a4c" stroke-width="2"/><text x="1050.0" y="379.0" class="label" text-anchor="middle">Peer set</text><text x="1050.0" y="411.0" class="label" text-anchor="middle">reliable</text><text x="1050.0" y="440" class="tiny" text-anchor="middle">Multiples</text><line x1="600" y1="210" x2="1050" y2="330" stroke="#d68a4c" stroke-width="3"/><polygon points="1050,330 1034.5501547360166,334.15960110094306 1038.672757144982,318.6998420673231" fill="#d68a4c"/><text x="600" y="620" class="small" text-anchor="middle">Model choice는 회사 특성·data quality·valuation purpose에 맞춰.</text></svg>