<svg xmlns="http://www.w3.org/2000/svg" viewBox="0 0 1200 700" role="img" aria-label="Dividend discount model timeline">
<rect width="100%" height="100%" rx="28" fill="#fffaf3"/>
<style>
 text{font-family:Pretendard, 'Noto Sans KR', Arial, sans-serif;fill:#28231f}.muted{fill:#756b62}.small{font-size:22px}.tiny{font-size:18px}.label{font-size:24px;font-weight:700}.title{font-size:34px;font-weight:800}.mono{font-family:Consolas,'SFMono-Regular',monospace}
</style>
<text x="60" y="60" class="title" text-anchor="start">DDM: Multi-stage Dividend Timeline</text><line x1="100" y1="380" x2="1100" y2="380" stroke="#756b62" stroke-width="4"/><circle cx="150" cy="380" r="10" fill="#8a4f2d" stroke="#8a4f2d" stroke-width="1"/><text x="150" y="340" class="tiny" text-anchor="middle">t=1</text><rect x="80" y="170" width="140" height="90" rx="20" fill="#fff" stroke="#2f7d73" stroke-width="2"/><text x="150.0" y="199.0" class="label" text-anchor="middle">D1</text><text x="150.0" y="231.0" class="label" text-anchor="middle">High growth</text><line x1="150" y1="260" x2="150" y2="370" stroke="#e7d8c6" stroke-width="3"/><circle cx="300" cy="380" r="10" fill="#8a4f2d" stroke="#8a4f2d" stroke-width="1"/><text x="300" y="340" class="tiny" text-anchor="middle">t=2</text><rect x="230" y="460" width="140" height="90" rx="20" fill="#fff" stroke="#2f7d73" stroke-width="2"/><text x="300.0" y="489.0" class="label" text-anchor="middle">D2</text><text x="300.0" y="521.0" class="label" text-anchor="middle">High growth</text><line x1="300" y1="460" x2="300" y2="390" stroke="#e7d8c6" stroke-width="3"/><circle cx="450" cy="380" r="10" fill="#8a4f2d" stroke="#8a4f2d" stroke-width="1"/><text x="450" y="340" class="tiny" text-anchor="middle">t=3</text><rect x="380" y="170" width="140" height="90" rx="20" fill="#fff" stroke="#2f7d73" stroke-width="2"/><text x="450.0" y="199.0" class="label" text-anchor="middle">D3</text><text x="450.0" y="231.0" class="label" text-anchor="middle">High growth</text><line x1="450" y1="260" x2="450" y2="370" stroke="#e7d8c6" stroke-width="3"/><circle cx="600" cy="380" r="10" fill="#8a4f2d" stroke="#8a4f2d" stroke-width="1"/><text x="600" y="340" class="tiny" text-anchor="middle">t=4</text><rect x="530" y="460" width="140" height="90" rx="20" fill="#fff" stroke="#d68a4c" stroke-width="2"/><text x="600.0" y="489.0" class="label" text-anchor="middle">D4</text><text x="600.0" y="521.0" class="label" text-anchor="middle">Transition</text><line x1="600" y1="460" x2="600" y2="390" stroke="#e7d8c6" stroke-width="3"/><circle cx="750" cy="380" r="10" fill="#8a4f2d" stroke="#8a4f2d" stroke-width="1"/><text x="750" y="340" class="tiny" text-anchor="middle">t=5</text><rect x="680" y="170" width="140" height="90" rx="20" fill="#fff" stroke="#d68a4c" stroke-width="2"/><text x="750.0" y="199.0" class="label" text-anchor="middle">D5</text><text x="750.0" y="231.0" class="label" text-anchor="middle">Transition</text><line x1="750" y1="260" x2="750" y2="370" stroke="#e7d8c6" stroke-width="3"/><circle cx="900" cy="380" r="10" fill="#8a4f2d" stroke="#8a4f2d" stroke-width="1"/><text x="900" y="340" class="tiny" text-anchor="middle">t=6</text><rect x="830" y="460" width="140" height="90" rx="20" fill="#fff" stroke="#4d8b64" stroke-width="2"/><text x="900.0" y="489.0" class="label" text-anchor="middle">D6</text><text x="900.0" y="521.0" class="label" text-anchor="middle">Stable</text><line x1="900" y1="460" x2="900" y2="390" stroke="#e7d8c6" stroke-width="3"/><circle cx="1050" cy="380" r="10" fill="#8a4f2d" stroke="#8a4f2d" stroke-width="1"/><text x="1050" y="340" class="tiny" text-anchor="middle">t=7</text><rect x="980" y="170" width="140" height="90" rx="20" fill="#fff" stroke="#4d8b64" stroke-width="2"/><text x="1050.0" y="199.0" class="label" text-anchor="middle">D7</text><text x="1050.0" y="231.0" class="label" text-anchor="middle">Stable</text><line x1="1050" y1="260" x2="1050" y2="370" stroke="#e7d8c6" stroke-width="3"/><text x="600" y="630" class="small" text-anchor="middle">Terminal value는 stable-growth assumptions가 성립하는 시점에 둬.</text></svg>