<svg xmlns="http://www.w3.org/2000/svg" width="1200" height="700" viewBox="0 0 1200 700">
<defs><style>
.t{font:700 26px Arial,sans-serif;fill:#15231c} .s{font:600 20px Arial,sans-serif;fill:#263b31} .m{font:500 17px Arial,sans-serif;fill:#3b4b43} .box{fill:#f7fbf8;stroke:#7aa88f;stroke-width:2} .hi{fill:#e3f4e9;stroke:#3e8b61;stroke-width:2} .warn{fill:#fff2df;stroke:#c98d3d;stroke-width:2} .line{stroke:#486b58;stroke-width:3;fill:none} .dash{stroke:#9aa9a0;stroke-width:2;stroke-dasharray:7 7;fill:none}
</style></defs><rect width="100%" height="100%" fill="#fcfdfc"/>
<text x="55" y="55" class="t">FCFF valuation · firm-to-equity waterfall</text>
<rect x="70" y="120" width="250" height="100" rx="16" class="hi"/><text x="105" y="165" class="s">PV of FCFF</text><text x="100" y="195" class="m">Operating assets</text>
<rect x="400" y="120" width="250" height="100" rx="16" class="box"/><text x="435" y="165" class="s">+ Excess cash</text><text x="425" y="195" class="m">nonoperating assets</text>
<rect x="730" y="120" width="250" height="100" rx="16" class="warn"/><text x="790" y="165" class="s">− MV Debt</text><text x="770" y="195" class="m">and other claims</text>
<rect x="420" y="380" width="360" height="120" rx="20" class="hi"/><text x="515" y="430" class="s">Equity Value</text><text x="485" y="470" class="m">÷ diluted shares → value/share</text>
<path d="M320 170 L400 170 M650 170 L730 170 M855 220 C855 300 750 350 720 380 M520 220 L560 380 M190 220 C190 320 400 360 480 400" class="line"/></svg>