<svg xmlns="http://www.w3.org/2000/svg" width="1200" height="700" viewBox="0 0 1200 700">
<defs><style>
.t{font:700 26px Arial,sans-serif;fill:#15231c} .s{font:600 20px Arial,sans-serif;fill:#263b31} .m{font:500 17px Arial,sans-serif;fill:#3b4b43} .box{fill:#f7fbf8;stroke:#7aa88f;stroke-width:2} .hi{fill:#e3f4e9;stroke:#3e8b61;stroke-width:2} .warn{fill:#fff2df;stroke:#c98d3d;stroke-width:2} .line{stroke:#486b58;stroke-width:3;fill:none} .dash{stroke:#9aa9a0;stroke-width:2;stroke-dasharray:7 7;fill:none}
</style></defs><rect width="100%" height="100%" fill="#fcfdfc"/>
<text x="55" y="55" class="t">Private company valuation · approach selection</text>
<rect x="460" y="90" width="300" height="100" rx="18" class="hi"/><text x="520" y="140" class="s">What drives value?</text>
<rect x="70" y="310" width="300" height="120" rx="18" class="box"/><text x="120" y="355" class="s">Cash generation</text><text x="120" y="395" class="m">→ Income approach</text>
<rect x="450" y="310" width="300" height="120" rx="18" class="box"/><text x="505" y="355" class="s">Good market comps</text><text x="500" y="395" class="m">→ Market approach</text>
<rect x="830" y="310" width="300" height="120" rx="18" class="box"/><text x="895" y="355" class="s">Assets / liquidation</text><text x="885" y="395" class="m">→ Asset-based</text>
<path d="M610 190 L220 310 M610 190 L600 310 M610 190 L980 310" class="line"/>
<rect x="300" y="530" width="600" height="100" rx="16" class="warn"/><text x="350" y="575" class="s">Before applying discounts: check value basis</text><text x="360" y="610" class="m">control? minority? marketable? nonmarketable?</text></svg>