<svg xmlns="http://www.w3.org/2000/svg" viewBox="0 0 1200 700" role="img" aria-label="Business cycle and market effects">
<rect width="100%" height="100%" rx="28" fill="#fffaf3"/>
<style>
 text{font-family:Pretendard, 'Noto Sans KR', Arial, sans-serif;fill:#28231f}.muted{fill:#756b62}.small{font-size:22px}.tiny{font-size:18px}.label{font-size:24px;font-weight:700}.title{font-size:34px;font-weight:800}.mono{font-family:Consolas,'SFMono-Regular',monospace}
</style>
<text x="60" y="60" class="title" text-anchor="start">Business Cycle and Market Effects</text><line x1="100" y1="560" x2="1100" y2="560" stroke="#756b62" stroke-width="2"/><line x1="100" y1="560" x2="100" y2="160" stroke="#756b62" stroke-width="2"/><polyline points="110.0,360.0 119.5,350.63110232364295 129.0,341.29878999221586 138.5,332.0395054856595 148.0,322.8894061118216 157.5,313.8842228129429 167.0,305.05912063709286 176.5,296.4485614194093 186.0,288.08616920936953 195.5,280.004598969597 205.0,272.23540905893066 214.5,264.8089379977096 224.0,257.75418599649987 233.5,251.09870171089312 243.0,244.86847466459594 252.5,239.08783376089605 262.0,233.7793522788155 271.5,228.96375972493934 281.0,224.6598608851357 290.5,220.88446239226985 300.0,217.65230709666207 309.5,214.97601649557296 319.0,212.86604144652665 328.5,211.33062135693575 338.0,210.37575200939185 347.5,210.00516214826266 357.0,210.22029891902525 366.5,211.02032221719375 376.0,212.40210796890946 385.5,214.36026033038243 395.0,216.88713275854593 404.5,219.97285787064357 414.0,223.60538597614774 423.5,227.77053213054327 433.0,232.45203152723218 442.5,237.63160301125544 452.0,243.28902046681182 461.5,249.40219179980716 471.0,255.94724520700925 480.5,262.89862239492834 490.0,270.2291783844065 499.5,277.91028751118023 509.0,285.91195520848663 518.5,294.20293513520505 528.0,302.75085119215026 537.5,311.52232395004694 547.0,320.4831009954869 556.5,329.59819068586995 566.0,338.83199879101994 575.5,348.14846748789154 585.0,357.51121616559783 594.5,366.88368349091695 604.0,376.2292701795163 613.5,385.51148191537413 623.0,394.69407186030327 632.5,403.74118219707793 642.0,412.617484153443 651.5,421.2883159602134 661.0,429.71981820474133 670.5,437.8790660511977 680.0,445.7341978113516 689.5,453.25453936378096 699.0,460.41072393566037 708.5,467.1748067793805 718.0,473.52037429618923 727.5,479.4226471807299 737.0,484.8585771836981 746.5,489.80693711476226 756.0,494.24840373428754 765.5,498.1656332101728 775.0,501.5433288451444 784.5,504.3683008100309 794.0,506.6295176497646 803.5,508.31814936097663 813.0,509.4276018729719 822.5,509.9535427974335 832.0,509.8939183463067 841.5,509.2489613517971 851.0,508.0211903571662 860.5,506.2153997818733 870.0,503.83864119947077 879.5,500.90019580135976 889.0,497.41153815393653 898.5,493.3862913906564 908.0,488.8401740139888 917.5,483.79093851500187 927.0,478.2583020502645 936.5,472.26386944677193 946.0,465.8310488355588 955.5,458.9849602434482 965.0,451.7523374998848 974.5,444.1614238419025 984.0,436.24186162488877 993.5,428.02457656982074 1003.0,419.54165699898704 1012.5,410.8262285317756 1022.0,401.9123247298389 1031.5,392.8347541967642 1041.0,383.62896465122145 1050.5,374.3309045043802 1060.0,364.97688248213353" fill="none" stroke="#2f7d73" stroke-width="5" stroke-linecap="round" stroke-linejoin="round"/><text x="190" y="610" class="tiny" text-anchor="middle">Early expansion</text><text x="430" y="610" class="tiny" text-anchor="middle">Late expansion</text><text x="680" y="610" class="tiny" text-anchor="middle">Slowdown</text><text x="920" y="610" class="tiny" text-anchor="middle">Contraction</text><text x="600" y="120" class="label" text-anchor="middle">Expectations matter: markets often move before reported macro data.</text></svg>