<svg xmlns="http://www.w3.org/2000/svg" viewBox="0 0 1200 700" role="img" aria-label="ETF creation and redemption mechanism">
<rect width="100%" height="100%" rx="28" fill="#fffaf3"/>
<style>
 text{font-family:Pretendard, 'Noto Sans KR', Arial, sans-serif;fill:#28231f}.muted{fill:#756b62}.small{font-size:22px}.tiny{font-size:18px}.label{font-size:24px;font-weight:700}.title{font-size:34px;font-weight:800}.mono{font-family:Consolas,'SFMono-Regular',monospace}
</style>
<text x="60" y="60" class="title" text-anchor="start">ETF Creation / Redemption Mechanism</text><rect x="80" y="220" width="280" height="180" rx="20" fill="#eef1f8" stroke="#4d74a8" stroke-width="2"/><text x="220.0" y="294.0" class="label" text-anchor="middle">Investors</text><text x="220.0" y="326.0" class="label" text-anchor="middle">Secondary Market</text><rect x="460" y="220" width="280" height="180" rx="20" fill="#f6dfca" stroke="#8a4f2d" stroke-width="2"/><text x="600.0" y="294.0" class="label" text-anchor="middle">Authorized Participant</text><text x="600.0" y="326.0" class="label" text-anchor="middle">(AP)</text><rect x="840" y="220" width="280" height="180" rx="20" fill="#edf4f1" stroke="#2f7d73" stroke-width="2"/><text x="980.0" y="294.0" class="label" text-anchor="middle">ETF Fund</text><text x="980.0" y="326.0" class="label" text-anchor="middle">Primary Market</text><line x1="360" y1="270" x2="460" y2="270" stroke="#4d74a8" stroke-width="3"/><polygon points="460,270 446.143593539449,278.0 446.143593539449,262.0" fill="#4d74a8"/><line x1="460" y1="350" x2="360" y2="350" stroke="#4d74a8" stroke-width="3"/><polygon points="360,350 373.856406460551,342.0 373.856406460551,358.0" fill="#4d74a8"/><line x1="740" y1="270" x2="840" y2="270" stroke="#2f7d73" stroke-width="3"/><polygon points="840,270 826.143593539449,278.0 826.143593539449,262.0" fill="#2f7d73"/><line x1="840" y1="350" x2="740" y2="350" stroke="#2f7d73" stroke-width="3"/><polygon points="740,350 753.856406460551,342.0 753.856406460551,358.0" fill="#2f7d73"/><text x="600" y="500" class="label" text-anchor="middle">Basket of securities ↔ ETF shares</text><text x="600" y="625" class="small" text-anchor="middle">Arbitrage mechanism helps keep ETF price close to NAV.</text></svg>