<svg xmlns="http://www.w3.org/2000/svg" viewBox="0 0 1200 700" role="img" aria-label="Multifactor model map">
<rect width="100%" height="100%" rx="28" fill="#fffaf3"/>
<style>
 text{font-family:Pretendard, 'Noto Sans KR', Arial, sans-serif;fill:#28231f}.muted{fill:#756b62}.small{font-size:22px}.tiny{font-size:18px}.label{font-size:24px;font-weight:700}.title{font-size:34px;font-weight:800}.mono{font-family:Consolas,'SFMono-Regular',monospace}
</style>
<text x="60" y="60" class="title" text-anchor="start">Multifactor Model: Return = Factor Exposures × Premia + Idiosyncratic</text><rect x="410" y="120" width="380" height="100" rx="20" fill="#f6dfca" stroke="#8a4f2d" stroke-width="2"/><text x="600.0" y="170.0" class="label" text-anchor="middle">Asset / Portfolio Return</text><rect x="60" y="350" width="220" height="120" rx="20" fill="#fff" stroke="#2f7d73" stroke-width="2"/><text x="170.0" y="394.0" class="label" text-anchor="middle">Macro factors</text><text x="170.0" y="426.0" class="label" text-anchor="middle">Growth · Inflation · Rates</text><line x1="170" y1="350" x2="600" y2="220" stroke="#2f7d73" stroke-width="2"/><polygon points="600,220 589.0516054048769,231.66758997348975 584.4213733844557,216.35220713671202" fill="#2f7d73"/><rect x="360" y="350" width="220" height="120" rx="20" fill="#fff" stroke="#4d74a8" stroke-width="2"/><text x="470.0" y="394.0" class="label" text-anchor="middle">Fundamental factors</text><text x="470.0" y="426.0" class="label" text-anchor="middle">Value · Size · Quality</text><line x1="470" y1="350" x2="600" y2="220" stroke="#4d74a8" stroke-width="2"/><polygon points="600,220 595.8588952783597,235.45481322062508 584.545186779375,224.14110472164035" fill="#4d74a8"/><rect x="660" y="350" width="220" height="120" rx="20" fill="#fff" stroke="#4d8b64" stroke-width="2"/><text x="770.0" y="394.0" class="label" text-anchor="middle">Statistical factors</text><text x="770.0" y="426.0" class="label" text-anchor="middle">PCA-derived</text><line x1="770" y1="350" x2="600" y2="220" stroke="#4d8b64" stroke-width="2"/><polygon points="600,220 615.8665458694209,222.06221293118884 606.1473441482882,234.77193825882398" fill="#4d8b64"/><rect x="960" y="350" width="220" height="120" rx="20" fill="#fff" stroke="#c35b5b" stroke-width="2"/><text x="1070.0" y="394.0" class="label" text-anchor="middle">Idiosyncratic</text><text x="1070.0" y="426.0" class="label" text-anchor="middle">Residual risk</text><line x1="1070" y1="350" x2="600" y2="220" stroke="#c35b5b" stroke-width="2"/><polygon points="600,220 615.4876470697484,215.98343576636503 611.222270197134,231.4044136904322" fill="#c35b5b"/><text x="600" y="620" class="small" text-anchor="middle">CFA 포인트: factor sensitivity와 factor risk premium을 구분해.</text></svg>