<svg xmlns="http://www.w3.org/2000/svg" viewBox="0 0 1200 700" role="img" aria-label="Multiple regression concept map">
<rect width="100%" height="100%" rx="28" fill="#fffaf3"/>
<style>
 text{font-family:Pretendard, 'Noto Sans KR', Arial, sans-serif;fill:#28231f}.muted{fill:#756b62}.small{font-size:22px}.tiny{font-size:18px}.label{font-size:24px;font-weight:700}.title{font-size:34px;font-weight:800}.mono{font-family:Consolas,'SFMono-Regular',monospace}
</style>
<text x="60" y="65" class="title" text-anchor="start">Multiple Regression: 전체 구조</text><rect x="445" y="110" width="310" height="90" rx="20" fill="#f6dfca" stroke="#8a4f2d" stroke-width="2"/><text x="600.0" y="155.0" class="label" text-anchor="middle">Multiple Regression</text><rect x="90" y="260" width="310" height="120" rx="20" fill="#edf4f1" stroke="#2f7d73" stroke-width="2"/><text x="245.0" y="304.0" class="label" text-anchor="middle">Basis</text><text x="245.0" y="336.0" class="label" text-anchor="middle">Equation · Coefficients</text><line x1="600" y1="200" x2="245" y2="260" stroke="#2f7d73" stroke-width="3"/><polygon points="245,260 257.32943391331924,249.80269352343012 259.9958434155447,265.5789497449309" fill="#2f7d73"/><rect x="445" y="260" width="310" height="120" rx="20" fill="#f2e6d7" stroke="#d68a4c" stroke-width="2"/><text x="600.0" y="304.0" class="label" text-anchor="middle">Model Fit</text><text x="600.0" y="336.0" class="label" text-anchor="middle">R² · ANOVA · AIC/BIC</text><line x1="600" y1="200" x2="600" y2="260" stroke="#d68a4c" stroke-width="3"/><polygon points="600,260 592.0,246.14359353944897 608.0,246.14359353944897" fill="#d68a4c"/><rect x="800" y="260" width="310" height="120" rx="20" fill="#eef1f8" stroke="#4d74a8" stroke-width="2"/><text x="955.0" y="304.0" class="label" text-anchor="middle">Hypothesis</text><text x="955.0" y="336.0" class="label" text-anchor="middle">t-test · Joint F-test</text><line x1="600" y1="200" x2="955" y2="260" stroke="#4d74a8" stroke-width="3"/><polygon points="955,260 940.0041565844552,265.5789497449309 942.6705660866808,249.80269352343012" fill="#4d74a8"/><rect x="90" y="470" width="310" height="120" rx="20" fill="#f8e8e8" stroke="#c35b5b" stroke-width="2"/><text x="245.0" y="514.0" class="label" text-anchor="middle">Assumption Violations</text><text x="245.0" y="546.0" class="label" text-anchor="middle">Heteroskedasticity · Serial Corr.</text><line x1="600" y1="200" x2="245" y2="470" stroke="#c35b5b" stroke-width="3"/><polygon points="245,470 251.1860131822206,455.24421330767507 260.871892719488,467.97935121778596" fill="#c35b5b"/><rect x="445" y="470" width="310" height="120" rx="20" fill="#f5efe6" stroke="#8a4f2d" stroke-width="2"/><text x="600.0" y="514.0" class="label" text-anchor="middle">Misspecification</text><text x="600.0" y="546.0" class="label" text-anchor="middle">Omitted · Form · Scaling</text><line x1="600" y1="200" x2="600" y2="470" stroke="#8a4f2d" stroke-width="3"/><polygon points="600,470 592.0,456.143593539449 608.0,456.143593539449" fill="#8a4f2d"/><rect x="800" y="470" width="310" height="120" rx="20" fill="#eaf4ec" stroke="#4d8b64" stroke-width="2"/><text x="955.0" y="514.0" class="label" text-anchor="middle">Extensions</text><text x="955.0" y="546.0" class="label" text-anchor="middle">Dummy · Interaction · Logit</text><line x1="600" y1="200" x2="955" y2="470" stroke="#4d8b64" stroke-width="3"/><polygon points="955,470 939.1281072805119,467.97935121778596 948.8139868177794,455.24421330767507" fill="#4d8b64"/></svg>