<svg xmlns="http://www.w3.org/2000/svg" viewBox="0 0 1200 700" role="img" aria-label="Residual plot patterns">
<rect width="100%" height="100%" rx="28" fill="#fffaf3"/>
<style>
 text{font-family:Pretendard, 'Noto Sans KR', Arial, sans-serif;fill:#28231f}.muted{fill:#756b62}.small{font-size:22px}.tiny{font-size:18px}.label{font-size:24px;font-weight:700}.title{font-size:34px;font-weight:800}.mono{font-family:Consolas,'SFMono-Regular',monospace}
</style>
<text x="60" y="60" class="title" text-anchor="start">Residual Plots: pattern으로 위반 찾기</text><text x="220" y="110" class="label" text-anchor="middle">Good fit</text><rect x="80" y="130" width="280" height="360" rx="18" fill="#fff" stroke="#e7d8c6" stroke-width="2"/><line x1="125" y1="430" x2="325" y2="430" stroke="#756b62" stroke-width="2"/><line x1="125" y1="430" x2="125" y2="180" stroke="#756b62" stroke-width="2"/><circle cx="135" cy="290" r="5" fill="#2f7d73" stroke="#2f7d73" stroke-width="1"/><circle cx="155" cy="265" r="5" fill="#2f7d73" stroke="#2f7d73" stroke-width="1"/><circle cx="175" cy="310" r="5" fill="#2f7d73" stroke="#2f7d73" stroke-width="1"/><circle cx="195" cy="275" r="5" fill="#2f7d73" stroke="#2f7d73" stroke-width="1"/><circle cx="215" cy="295" r="5" fill="#2f7d73" stroke="#2f7d73" stroke-width="1"/><circle cx="235" cy="260" r="5" fill="#2f7d73" stroke="#2f7d73" stroke-width="1"/><circle cx="255" cy="305" r="5" fill="#2f7d73" stroke="#2f7d73" stroke-width="1"/><circle cx="275" cy="280" r="5" fill="#2f7d73" stroke="#2f7d73" stroke-width="1"/><circle cx="295" cy="290" r="5" fill="#2f7d73" stroke="#2f7d73" stroke-width="1"/><line x1="125" y1="360" x2="325" y2="360" stroke="#756b62" stroke-width="2" stroke-dasharray="8 8"/><text x="560" y="110" class="label" text-anchor="middle">Nonlinearity</text><rect x="420" y="130" width="280" height="360" rx="18" fill="#fff" stroke="#e7d8c6" stroke-width="2"/><line x1="465" y1="430" x2="665" y2="430" stroke="#756b62" stroke-width="2"/><line x1="465" y1="430" x2="465" y2="180" stroke="#756b62" stroke-width="2"/><circle cx="475" cy="240" r="5" fill="#8a4f2d" stroke="#8a4f2d" stroke-width="1"/><circle cx="495" cy="275" r="5" fill="#8a4f2d" stroke="#8a4f2d" stroke-width="1"/><circle cx="515" cy="310" r="5" fill="#8a4f2d" stroke="#8a4f2d" stroke-width="1"/><circle cx="535" cy="335" r="5" fill="#8a4f2d" stroke="#8a4f2d" stroke-width="1"/><circle cx="555" cy="345" r="5" fill="#8a4f2d" stroke="#8a4f2d" stroke-width="1"/><circle cx="575" cy="335" r="5" fill="#8a4f2d" stroke="#8a4f2d" stroke-width="1"/><circle cx="595" cy="310" r="5" fill="#8a4f2d" stroke="#8a4f2d" stroke-width="1"/><circle cx="615" cy="275" r="5" fill="#8a4f2d" stroke="#8a4f2d" stroke-width="1"/><circle cx="635" cy="240" r="5" fill="#8a4f2d" stroke="#8a4f2d" stroke-width="1"/><line x1="465" y1="360" x2="665" y2="360" stroke="#756b62" stroke-width="2" stroke-dasharray="8 8"/><text x="900" y="110" class="label" text-anchor="middle">Heteroskedasticity</text><rect x="760" y="130" width="280" height="360" rx="18" fill="#fff" stroke="#e7d8c6" stroke-width="2"/><line x1="805" y1="430" x2="1005" y2="430" stroke="#756b62" stroke-width="2"/><line x1="805" y1="430" x2="805" y2="180" stroke="#756b62" stroke-width="2"/><circle cx="815" cy="278" r="5" fill="#c35b5b" stroke="#c35b5b" stroke-width="1"/><circle cx="815" cy="302" r="5" fill="#c35b5b" stroke="#c35b5b" stroke-width="1"/><circle cx="835" cy="268" r="5" fill="#c35b5b" stroke="#c35b5b" stroke-width="1"/><circle cx="835" cy="312" r="5" fill="#c35b5b" stroke="#c35b5b" stroke-width="1"/><circle cx="855" cy="258" r="5" fill="#c35b5b" stroke="#c35b5b" stroke-width="1"/><circle cx="855" cy="322" r="5" fill="#c35b5b" stroke="#c35b5b" stroke-width="1"/><circle cx="875" cy="248" r="5" fill="#c35b5b" stroke="#c35b5b" stroke-width="1"/><circle cx="875" cy="332" r="5" fill="#c35b5b" stroke="#c35b5b" stroke-width="1"/><circle cx="895" cy="238" r="5" fill="#c35b5b" stroke="#c35b5b" stroke-width="1"/><circle cx="895" cy="342" r="5" fill="#c35b5b" stroke="#c35b5b" stroke-width="1"/><circle cx="915" cy="228" r="5" fill="#c35b5b" stroke="#c35b5b" stroke-width="1"/><circle cx="915" cy="352" r="5" fill="#c35b5b" stroke="#c35b5b" stroke-width="1"/><circle cx="935" cy="218" r="5" fill="#c35b5b" stroke="#c35b5b" stroke-width="1"/><circle cx="935" cy="362" r="5" fill="#c35b5b" stroke="#c35b5b" stroke-width="1"/><circle cx="955" cy="208" r="5" fill="#c35b5b" stroke="#c35b5b" stroke-width="1"/><circle cx="955" cy="372" r="5" fill="#c35b5b" stroke="#c35b5b" stroke-width="1"/><circle cx="975" cy="198" r="5" fill="#c35b5b" stroke="#c35b5b" stroke-width="1"/><circle cx="975" cy="382" r="5" fill="#c35b5b" stroke="#c35b5b" stroke-width="1"/><line x1="805" y1="360" x2="1005" y2="360" stroke="#756b62" stroke-width="2" stroke-dasharray="8 8"/><text x="600" y="620" class="small" text-anchor="middle">핵심: residual은 0 주변에 무작위로 흩어져야 해.</text></svg>