<svg xmlns="http://www.w3.org/2000/svg" viewBox="0 0 1200 700" role="img" aria-label="Machine learning map">
<rect width="100%" height="100%" rx="28" fill="#fffaf3"/>
<style>
 text{font-family:Pretendard, 'Noto Sans KR', Arial, sans-serif;fill:#28231f}.muted{fill:#756b62}.small{font-size:22px}.tiny{font-size:18px}.label{font-size:24px;font-weight:700}.title{font-size:34px;font-weight:800}.mono{font-family:Consolas,'SFMono-Regular',monospace}
</style>
<text x="60" y="60" class="title" text-anchor="start">Machine Learning: 문제 유형에서 알고리즘 선택</text><rect x="430" y="100" width="340" height="90" rx="20" fill="#f6dfca" stroke="#8a4f2d" stroke-width="2"/><text x="600.0" y="145.0" class="label" text-anchor="middle">Machine Learning</text><rect x="110" y="260" width="380" height="110" rx="20" fill="#edf4f1" stroke="#2f7d73" stroke-width="2"/><text x="300.0" y="299.0" class="label" text-anchor="middle">Supervised Learning</text><text x="300.0" y="331.0" class="label" text-anchor="middle">label 있음</text><rect x="710" y="260" width="380" height="110" rx="20" fill="#eef1f8" stroke="#4d74a8" stroke-width="2"/><text x="900.0" y="299.0" class="label" text-anchor="middle">Unsupervised Learning</text><text x="900.0" y="331.0" class="label" text-anchor="middle">label 없음</text><line x1="520" y1="190" x2="300" y2="260" stroke="#2f7d73" stroke-width="4"/><polygon points="300,260 310.7784976763858,248.17528064433893 315.62975619281696,263.4220931245511" fill="#2f7d73"/><line x1="680" y1="190" x2="900" y2="260" stroke="#4d74a8" stroke-width="4"/><polygon points="900,260 884.370243807183,263.4220931245511 889.2215023236142,248.17528064433893" fill="#4d74a8"/><rect x="70" y="460" width="210" height="105" rx="20" fill="#fff" stroke="#2f7d73" stroke-width="2"/><text x="175.0" y="496.5" class="label" text-anchor="middle">Penalized regression</text><text x="175.0" y="528.5" class="label" text-anchor="middle">SVM · KNN</text><rect x="300" y="460" width="210" height="105" rx="20" fill="#fff" stroke="#4d8b64" stroke-width="2"/><text x="405.0" y="496.5" class="label" text-anchor="middle">CART · Ensemble</text><text x="405.0" y="528.5" class="label" text-anchor="middle">Random Forest</text><rect x="700" y="460" width="210" height="105" rx="20" fill="#fff" stroke="#4d74a8" stroke-width="2"/><text x="805.0" y="496.5" class="label" text-anchor="middle">PCA</text><text x="805.0" y="528.5" class="label" text-anchor="middle">Dimensionality reduction</text><rect x="930" y="460" width="210" height="105" rx="20" fill="#fff" stroke="#d68a4c" stroke-width="2"/><text x="1035.0" y="496.5" class="label" text-anchor="middle">K-means</text><text x="1035.0" y="528.5" class="label" text-anchor="middle">Hierarchical clustering</text><text x="600" y="630" class="small" text-anchor="middle">CFA 포인트: “정의”보다 어떤 문제에 어떤 algorithm이 맞는지.</text></svg>