<svg xmlns="http://www.w3.org/2000/svg" viewBox="0 0 1200 700" role="img" aria-label="FX parity relationships map">
<rect width="100%" height="100%" rx="28" fill="#fffaf3"/>
<style>
 text{font-family:Pretendard, 'Noto Sans KR', Arial, sans-serif;fill:#28231f}.muted{fill:#756b62}.small{font-size:22px}.tiny{font-size:18px}.label{font-size:24px;font-weight:700}.title{font-size:34px;font-weight:800}.mono{font-family:Consolas,'SFMono-Regular',monospace}
</style>
<text x="60" y="60" class="title" text-anchor="start">FX Parity Relationships: 한 장 연결도</text><rect x="430" y="260" width="340" height="100" rx="20" fill="#f6dfca" stroke="#8a4f2d" stroke-width="2"/><text x="600.0" y="310.0" class="label" text-anchor="middle">Spot / Forward FX</text><rect x="80" y="120" width="300" height="100" rx="20" fill="#fff" stroke="#2f7d73" stroke-width="2"/><text x="230.0" y="154.0" class="label" text-anchor="middle">Covered Interest</text><text x="230.0" y="186.0" class="label" text-anchor="middle">Parity (CIP)</text><line x1="230" y1="220" x2="600" y2="310" stroke="#2f7d73" stroke-width="3"/><polygon points="600,310 584.6453661128587,314.4983572770347 588.4269913792186,298.95167562644355" fill="#2f7d73"/><rect x="820" y="120" width="300" height="100" rx="20" fill="#fff" stroke="#4d74a8" stroke-width="2"/><text x="970.0" y="154.0" class="label" text-anchor="middle">Uncovered Interest</text><text x="970.0" y="186.0" class="label" text-anchor="middle">Parity (UIP)</text><line x1="970" y1="220" x2="600" y2="310" stroke="#4d74a8" stroke-width="3"/><polygon points="600,310 611.5730086207814,298.95167562644355 615.3546338871413,314.4983572770347" fill="#4d74a8"/><rect x="80" y="470" width="300" height="100" rx="20" fill="#fff" stroke="#d68a4c" stroke-width="2"/><text x="230.0" y="520.0" class="label" text-anchor="middle">Relative PPP</text><line x1="230" y1="470" x2="600" y2="310" stroke="#d68a4c" stroke-width="3"/><polygon points="600,310 590.4570890425434,322.842618520304 584.1065106315759,308.1569059449417" fill="#d68a4c"/><rect x="820" y="470" width="300" height="100" rx="20" fill="#fff" stroke="#4d8b64" stroke-width="2"/><text x="970.0" y="504.0" class="label" text-anchor="middle">International Fisher</text><text x="970.0" y="536.0" class="label" text-anchor="middle">Effect</text><line x1="970" y1="470" x2="600" y2="310" stroke="#4d8b64" stroke-width="3"/><polygon points="600,310 615.8934893684241,308.1569059449417 609.5429109574566,322.842618520304" fill="#4d8b64"/><text x="600" y="420" class="small" text-anchor="middle">Forward premium ≈ interest differential</text><text x="600" y="455" class="small" text-anchor="middle">Expected ΔS ≈ inflation / interest differential</text></svg>