<svg xmlns="http://www.w3.org/2000/svg" viewBox="0 0 1200 700" role="img" aria-label="Growth accounting diagram">
<rect width="100%" height="100%" rx="28" fill="#fffaf3"/>
<style>
 text{font-family:Pretendard, 'Noto Sans KR', Arial, sans-serif;fill:#28231f}.muted{fill:#756b62}.small{font-size:22px}.tiny{font-size:18px}.label{font-size:24px;font-weight:700}.title{font-size:34px;font-weight:800}.mono{font-family:Consolas,'SFMono-Regular',monospace}
</style>
<text x="60" y="60" class="title" text-anchor="start">Economic Growth: Production Function과 Growth Accounting</text><rect x="420" y="110" width="360" height="100" rx="20" fill="#f6dfca" stroke="#8a4f2d" stroke-width="2"/><text x="600.0" y="160.0" class="label" text-anchor="middle">Y = A · K^α · L^(1−α)</text><circle cx="190" cy="360" r="95" fill="#fff" stroke="#2f7d73" stroke-width="4"/><text x="190" y="345" class="title" text-anchor="middle">A</text><text x="190" y="390" class="tiny" text-anchor="middle">Total factor
productivity</text><line x1="190" y1="265" x2="600" y2="210" stroke="#2f7d73" stroke-width="3"/><polygon points="600,210 587.3302535508536,219.77126014976278 585.2029672587457,203.91330779041292" fill="#2f7d73"/><circle cx="560" cy="360" r="95" fill="#fff" stroke="#4d74a8" stroke-width="4"/><text x="560" y="345" class="title" text-anchor="middle">K</text><text x="560" y="390" class="tiny" text-anchor="middle">Physical
capital</text><line x1="560" y1="265" x2="600" y2="210" stroke="#4d74a8" stroke-width="3"/><polygon points="600,210 598.3199425628477,225.9115494848198 585.3801652139967,216.50080232201907" fill="#4d74a8"/><circle cx="930" cy="360" r="95" fill="#fff" stroke="#4d8b64" stroke-width="4"/><text x="930" y="345" class="title" text-anchor="middle">L</text><text x="930" y="390" class="tiny" text-anchor="middle">Labor / Human
capital</text><line x1="930" y1="265" x2="600" y2="210" stroke="#4d8b64" stroke-width="3"/><polygon points="600,210 614.9830670372788,204.38682779914885 612.3526832403932,220.16913058046316" fill="#4d8b64"/><rect x="320" y="520" width="560" height="90" rx="20" fill="#f2e6d7" stroke="#d68a4c" stroke-width="2"/><text x="600.0" y="565.0" class="label" text-anchor="middle">ΔY ≈ ΔA + αΔK + (1−α)ΔL</text></svg>