<svg xmlns="http://www.w3.org/2000/svg" viewBox="0 0 1200 700" role="img" aria-label="CAMELS bank analysis framework">
<rect width="100%" height="100%" rx="28" fill="#fffaf3"/>
<style>
 text{font-family:Pretendard, 'Noto Sans KR', Arial, sans-serif;fill:#28231f}.muted{fill:#756b62}.small{font-size:22px}.tiny{font-size:18px}.label{font-size:24px;font-weight:700}.title{font-size:34px;font-weight:800}.mono{font-family:Consolas,'SFMono-Regular',monospace}
</style>
<text x="60" y="60" class="title" text-anchor="start">CAMELS: Bank Analysis Framework</text><circle cx="600.0" cy="130.0" r="80" fill="#fff" stroke="#8a4f2d" stroke-width="4"/><text x="600.0" y="125.0" class="title" text-anchor="middle">C</text><text x="600.0" y="165.0" class="tiny" text-anchor="middle">Capital adequacy</text><line x1="600" y1="360" x2="600.0" y2="130.0" stroke="#e7d8c6" stroke-width="3"/><circle cx="825.166604983954" cy="245.0" r="80" fill="#fff" stroke="#c35b5b" stroke-width="4"/><text x="825.166604983954" y="240.0" class="title" text-anchor="middle">A</text><text x="825.166604983954" y="280.0" class="tiny" text-anchor="middle">Asset quality</text><line x1="600" y1="360" x2="825.166604983954" y2="245.0" stroke="#e7d8c6" stroke-width="3"/><circle cx="825.1666049839541" cy="474.99999999999994" r="80" fill="#fff" stroke="#4d74a8" stroke-width="4"/><text x="825.1666049839541" y="469.99999999999994" class="title" text-anchor="middle">M</text><text x="825.1666049839541" y="509.99999999999994" class="tiny" text-anchor="middle">Management</text><line x1="600" y1="360" x2="825.1666049839541" y2="474.99999999999994" stroke="#e7d8c6" stroke-width="3"/><circle cx="600.0" cy="590.0" r="80" fill="#fff" stroke="#4d8b64" stroke-width="4"/><text x="600.0" y="585.0" class="title" text-anchor="middle">E</text><text x="600.0" y="625.0" class="tiny" text-anchor="middle">Earnings</text><line x1="600" y1="360" x2="600.0" y2="590.0" stroke="#e7d8c6" stroke-width="3"/><circle cx="374.833395016046" cy="475.00000000000006" r="80" fill="#fff" stroke="#2f7d73" stroke-width="4"/><text x="374.833395016046" y="470.00000000000006" class="title" text-anchor="middle">L</text><text x="374.833395016046" y="510.00000000000006" class="tiny" text-anchor="middle">Liquidity</text><line x1="600" y1="360" x2="374.833395016046" y2="475.00000000000006" stroke="#e7d8c6" stroke-width="3"/><circle cx="374.833395016046" cy="244.99999999999997" r="80" fill="#fff" stroke="#d68a4c" stroke-width="4"/><text x="374.833395016046" y="239.99999999999997" class="title" text-anchor="middle">S</text><text x="374.833395016046" y="280.0" class="tiny" text-anchor="middle">Sensitivity</text><line x1="600" y1="360" x2="374.833395016046" y2="244.99999999999997" stroke="#e7d8c6" stroke-width="3"/><circle cx="600" cy="360" r="100" fill="#f6dfca" stroke="#8a4f2d" stroke-width="4"/><text x="600" y="350" class="title" text-anchor="middle">BANK</text><text x="600" y="390" class="small" text-anchor="middle">risk profile</text></svg>