<svg xmlns="http://www.w3.org/2000/svg" viewBox="0 0 1200 700" role="img" aria-label="Cost of capital drivers">
<rect width="100%" height="100%" rx="28" fill="#fffaf3"/>
<style>
 text{font-family:Pretendard, 'Noto Sans KR', Arial, sans-serif;fill:#28231f}.muted{fill:#756b62}.small{font-size:22px}.tiny{font-size:18px}.label{font-size:24px;font-weight:700}.title{font-size:34px;font-weight:800}.mono{font-family:Consolas,'SFMono-Regular',monospace}
</style>
<text x="60" y="60" class="title" text-anchor="start">Cost of Capital: Top-down + Bottom-up</text><rect x="420" y="280" width="360" height="110" rx="20" fill="#f6dfca" stroke="#8a4f2d" stroke-width="2"/><text x="600.0" y="335.0" class="label" text-anchor="middle">Company Cost of Capital</text><rect x="80" y="110" width="300" height="100" rx="20" fill="#fff" stroke="#2f7d73" stroke-width="2"/><text x="230.0" y="144.0" class="label" text-anchor="middle">Macro / Country</text><text x="230.0" y="176.0" class="label" text-anchor="middle">Risk-free rate · ERP</text><line x1="230" y1="210" x2="600" y2="335" stroke="#2f7d73" stroke-width="3"/><polygon points="600,335 584.3119784798955,338.1441979557176 589.4330339357692,322.9858738063313" fill="#2f7d73"/><rect x="820" y="110" width="300" height="100" rx="20" fill="#fff" stroke="#4d74a8" stroke-width="2"/><text x="970.0" y="144.0" class="label" text-anchor="middle">Industry / Business</text><text x="970.0" y="176.0" class="label" text-anchor="middle">Operating risk</text><line x1="970" y1="210" x2="600" y2="335" stroke="#4d74a8" stroke-width="3"/><polygon points="600,335 610.5669660642308,322.9858738063313 615.6880215201045,338.1441979557176" fill="#4d74a8"/><rect x="80" y="500" width="300" height="100" rx="20" fill="#fff" stroke="#c35b5b" stroke-width="2"/><text x="230.0" y="534.0" class="label" text-anchor="middle">Capital Structure</text><text x="230.0" y="566.0" class="label" text-anchor="middle">Leverage · Tax shield</text><line x1="230" y1="500" x2="600" y2="335" stroke="#c35b5b" stroke-width="3"/><polygon points="600,335 590.6031840335036,347.94989767109365 584.0866516571757,333.3370674938737" fill="#c35b5b"/><rect x="820" y="500" width="300" height="100" rx="20" fill="#fff" stroke="#4d8b64" stroke-width="2"/><text x="970.0" y="534.0" class="label" text-anchor="middle">Company Specific</text><text x="970.0" y="566.0" class="label" text-anchor="middle">Size · liquidity · credit</text><line x1="970" y1="500" x2="600" y2="335" stroke="#4d8b64" stroke-width="3"/><polygon points="600,335 615.9133483428243,333.3370674938737 609.3968159664964,347.94989767109365" fill="#4d8b64"/><text x="600" y="640" class="small" text-anchor="middle">WACC는 숫자 하나가 아니라 여러 risk driver의 결과야.</text></svg>