<svg xmlns="http://www.w3.org/2000/svg" viewBox="0 0 1200 700" role="img" aria-label="Intercorporate investment classification map">
<rect width="100%" height="100%" rx="28" fill="#fffaf3"/>
<style>
 text{font-family:Pretendard, 'Noto Sans KR', Arial, sans-serif;fill:#28231f}.muted{fill:#756b62}.small{font-size:22px}.tiny{font-size:18px}.label{font-size:24px;font-weight:700}.title{font-size:34px;font-weight:800}.mono{font-family:Consolas,'SFMono-Regular',monospace}
</style>
<text x="60" y="60" class="title" text-anchor="start">Intercorporate Investments: influence/control 판단</text><rect x="430" y="100" width="340" height="90" rx="20" fill="#f6dfca" stroke="#8a4f2d" stroke-width="2"/><text x="600.0" y="145.0" class="label" text-anchor="middle">Investment in another entity</text><rect x="70" y="300" width="340" height="120" rx="20" fill="#fff" stroke="#2f7d73" stroke-width="2"/><text x="240.0" y="360.0" class="label" text-anchor="middle">Passive</text><text x="240.0" y="400" class="tiny" text-anchor="middle">No significant influence</text><line x1="600" y1="190" x2="240" y2="300" stroke="#2f7d73" stroke-width="3"/><polygon points="240,300 250.91384780288172,288.30008862702226 255.58934437246606,303.6017137638437" fill="#2f7d73"/><rect x="430" y="300" width="340" height="120" rx="20" fill="#fff" stroke="#4d74a8" stroke-width="2"/><text x="600.0" y="360.0" class="label" text-anchor="middle">Associate / JV</text><text x="600.0" y="400" class="tiny" text-anchor="middle">Significant influence
or joint control</text><line x1="600" y1="190" x2="600" y2="300" stroke="#4d74a8" stroke-width="3"/><polygon points="600,300 592.0,286.143593539449 608.0,286.143593539449" fill="#4d74a8"/><rect x="790" y="300" width="340" height="120" rx="20" fill="#fff" stroke="#4d8b64" stroke-width="2"/><text x="960.0" y="360.0" class="label" text-anchor="middle">Subsidiary</text><text x="960.0" y="400" class="tiny" text-anchor="middle">Control</text><line x1="600" y1="190" x2="960" y2="300" stroke="#4d8b64" stroke-width="3"/><polygon points="960,300 944.410655627534,303.6017137638437 949.0861521971183,288.30008862702226" fill="#4d8b64"/><text x="240" y="500" class="label" text-anchor="middle">IFRS 9
AC / FVOCI / FVTPL</text><text x="600" y="500" class="label" text-anchor="middle">Equity method</text><text x="960" y="500" class="label" text-anchor="middle">Consolidation</text><text x="600" y="635" class="small" text-anchor="middle">지분율은 힌트일 뿐. 실제 influence/control이 우선.</text></svg>