<svg xmlns="http://www.w3.org/2000/svg" viewBox="0 0 1200 700" role="img" aria-label="Binomial interest rate tree">
<rect width="100%" height="100%" rx="28" fill="#fffaf3"/>
<style>
 text{font-family:Pretendard, 'Noto Sans KR', Arial, sans-serif;fill:#28231f}.muted{fill:#756b62}.small{font-size:22px}.tiny{font-size:18px}.label{font-size:24px;font-weight:700}.title{font-size:34px;font-weight:800}.mono{font-family:Consolas,'SFMono-Regular',monospace}
</style>
<text x="60" y="60" class="title" text-anchor="start">Arbitrage-free Binomial Interest-rate Tree</text><circle cx="180" cy="350" r="48" fill="#fff" stroke="#8a4f2d" stroke-width="3"/><text x="180" y="358" class="small" text-anchor="middle">r₀</text><circle cx="420" cy="230" r="48" fill="#fff" stroke="#8a4f2d" stroke-width="3"/><text x="420" y="238" class="small" text-anchor="middle">rᵤ</text><circle cx="420" cy="470" r="48" fill="#fff" stroke="#8a4f2d" stroke-width="3"/><text x="420" y="478" class="small" text-anchor="middle">r_d</text><circle cx="700" cy="140" r="48" fill="#fff" stroke="#8a4f2d" stroke-width="3"/><text x="700" y="148" class="small" text-anchor="middle">rᵤᵤ</text><circle cx="700" cy="350" r="48" fill="#fff" stroke="#8a4f2d" stroke-width="3"/><text x="700" y="358" class="small" text-anchor="middle">r_ud</text><circle cx="700" cy="560" r="48" fill="#fff" stroke="#8a4f2d" stroke-width="3"/><text x="700" y="568" class="small" text-anchor="middle">r_dd</text><circle cx="1000" cy="100" r="48" fill="#fff" stroke="#4d8b64" stroke-width="3"/><text x="1000" y="108" class="small" text-anchor="middle">CF</text><circle cx="1000" cy="270" r="48" fill="#fff" stroke="#4d8b64" stroke-width="3"/><text x="1000" y="278" class="small" text-anchor="middle">CF</text><circle cx="1000" cy="440" r="48" fill="#fff" stroke="#4d8b64" stroke-width="3"/><text x="1000" y="448" class="small" text-anchor="middle">CF</text><circle cx="1000" cy="610" r="48" fill="#fff" stroke="#4d8b64" stroke-width="3"/><text x="1000" y="618" class="small" text-anchor="middle">CF</text><line x1="228" y1="350" x2="372" y2="230" stroke="#756b62" stroke-width="2"/><polygon points="372,230 366.47668889556996,245.0164254882339 356.23373850093833,232.72488501467586" fill="#756b62"/><line x1="228" y1="350" x2="372" y2="470" stroke="#756b62" stroke-width="2"/><polygon points="372,470 356.23373850093833,467.27511498532414 366.47668889556996,454.9835745117661" fill="#756b62"/><line x1="468" y1="230" x2="652" y2="140" stroke="#756b62" stroke-width="2"/><polygon points="652,140 643.0678896825365,153.27469040229042 636.0377257255112,138.90191075681668" fill="#756b62"/><line x1="468" y1="230" x2="652" y2="350" stroke="#756b62" stroke-width="2"/><polygon points="652,350 636.0235848701641,349.1315763711477 644.7638693589148,335.7298068217298" fill="#756b62"/><line x1="468" y1="470" x2="652" y2="350" stroke="#756b62" stroke-width="2"/><polygon points="652,350 644.7638693589148,364.2701931782702 636.0235848701641,350.8684236288523" fill="#756b62"/><line x1="468" y1="470" x2="652" y2="560" stroke="#756b62" stroke-width="2"/><polygon points="652,560 636.0377257255112,561.0980892431833 643.0678896825365,546.7253095977096" fill="#756b62"/><line x1="748" y1="140" x2="952" y2="100" stroke="#756b62" stroke-width="2"/><polygon points="952,100 939.941833504914,110.51668297405531 936.8632021333779,94.8156629792208" fill="#756b62"/><line x1="748" y1="140" x2="952" y2="270" stroke="#756b62" stroke-width="2"/><polygon points="952,270 936.01532024625,269.2999905928804 944.6138860525787,255.80685655833395" fill="#756b62"/><line x1="748" y1="350" x2="952" y2="270" stroke="#756b62" stroke-width="2"/><polygon points="952,270 942.0207571884316,282.50658678088314 936.1793567273363,267.61101560509013" fill="#756b62"/><line x1="748" y1="350" x2="952" y2="440" stroke="#756b62" stroke-width="2"/><polygon points="952,440 936.0934054108013,441.72633964644155 942.551648716022,427.08765482127467" fill="#756b62"/><line x1="748" y1="560" x2="952" y2="440" stroke="#756b62" stroke-width="2"/><polygon points="952,440 944.1128501850251,453.9209506786046 936.0005281600107,440.13000323608026" fill="#756b62"/><line x1="748" y1="560" x2="952" y2="610" stroke="#756b62" stroke-width="2"/><polygon points="952,610 936.637515554653,614.4714730980373 940.4463484820874,598.9314347541049" fill="#756b62"/><text x="600" y="655" class="small" text-anchor="middle">Backward induction: terminal cash flow에서 현재가치로 거꾸로 올라온다.</text></svg>