<svg xmlns="http://www.w3.org/2000/svg" viewBox="0 0 1200 700" role="img" aria-label="Hedge fund strategy map">
<rect width="100%" height="100%" rx="28" fill="#fffaf3"/>
<style>
 text{font-family:Pretendard, 'Noto Sans KR', Arial, sans-serif;fill:#28231f}.muted{fill:#756b62}.small{font-size:22px}.tiny{font-size:18px}.label{font-size:24px;font-weight:700}.title{font-size:34px;font-weight:800}.mono{font-family:Consolas,'SFMono-Regular',monospace}
</style>
<text x="60" y="60" class="title" text-anchor="start">Hedge Fund Strategy Map</text><rect x="425" y="100" width="350" height="90" rx="20" fill="#f6dfca" stroke="#8a4f2d" stroke-width="2"/><text x="600.0" y="145.0" class="label" text-anchor="middle">Hedge Fund Strategies</text><rect x="80" y="270" width="250" height="100" rx="20" fill="#fff" stroke="#2f7d73" stroke-width="2"/><text x="205.0" y="304.0" class="label" text-anchor="middle">Equity</text><text x="205.0" y="336.0" class="label" text-anchor="middle">Long/Short</text><line x1="600" y1="190" x2="205" y2="270" stroke="#2f7d73" stroke-width="2"/><polygon points="205,270 216.99266126566587,259.4086792246199 220.16868348394198,275.09028892735824" fill="#2f7d73"/><rect x="330" y="270" width="250" height="100" rx="20" fill="#fff" stroke="#c35b5b" stroke-width="2"/><text x="455.0" y="320.0" class="label" text-anchor="middle">Event-driven</text><line x1="600" y1="190" x2="455" y2="270" stroke="#c35b5b" stroke-width="2"/><polygon points="455,270 463.2677415343725,256.3016625125232 470.99697902095386,270.3109054569519" fill="#c35b5b"/><rect x="580" y="270" width="250" height="100" rx="20" fill="#fff" stroke="#4d74a8" stroke-width="2"/><text x="705.0" y="320.0" class="label" text-anchor="middle">Relative Value</text><line x1="600" y1="190" x2="705" y2="270" stroke="#4d74a8" stroke-width="2"/><polygon points="705,270 689.1298290535116,267.9658726369186 698.8265204977173,255.23896511639867" fill="#4d74a8"/><rect x="830" y="270" width="250" height="100" rx="20" fill="#fff" stroke="#4d8b64" stroke-width="2"/><text x="955.0" y="320.0" class="label" text-anchor="middle">Macro / CTA</text><line x1="600" y1="190" x2="955" y2="270" stroke="#4d8b64" stroke-width="2"/><polygon points="955,270 939.7238617134753,274.75810876830036 943.2412877894201,259.1495305562958" fill="#4d8b64"/><rect x="205" y="470" width="250" height="100" rx="20" fill="#fff" stroke="#d68a4c" stroke-width="2"/><text x="330.0" y="520.0" class="label" text-anchor="middle">Specialist</text><line x1="600" y1="190" x2="330" y2="470" stroke="#d68a4c" stroke-width="2"/><polygon points="330,470 333.85947024137613,454.47246028966816 345.3769789681071,465.5786294190159" fill="#d68a4c"/><rect x="705" y="470" width="250" height="100" rx="20" fill="#fff" stroke="#8a4f2d" stroke-width="2"/><text x="830.0" y="520.0" class="label" text-anchor="middle">Multi-manager</text><line x1="600" y1="190" x2="830" y2="470" stroke="#8a4f2d" stroke-width="2"/><polygon points="830,470 815.022982517186,464.3707063214393 827.3866025895898,454.21487554767907" fill="#8a4f2d"/><text x="600" y="630" class="small" text-anchor="middle">Strategy label보다 return driver·leverage·liquidity·tail risk를 봐.</text></svg>